<svg width="50" height="50" viewBox="0 0 50 50" fill="none" xmlns="http://www.w3.org/2000/svg">
<path d="M25.0193 9.04803e-06C11.2113 -0.011612 0.0116301 11.1727 9.04803e-06 24.9807C-0.011612 38.7887 11.1727 49.9884 24.9807 50C38.7868 49.9884 49.9787 38.8062 50 25C50 11.1997 38.8196 0.0116301 25.0193 9.04803e-06ZM24.9807 45.8399C13.4714 45.8399 4.14093 36.5093 4.14093 25C4.14093 13.4907 13.4714 4.16026 24.9807 4.16026C36.486 4.17188 45.8088 13.4946 45.8204 25C45.8204 36.5093 36.49 45.8399 24.9807 45.8399Z" fill="white"/>
<path d="M31.7338 23.7809C33.4057 22.8385 34.3093 20.952 33.9978 19.0595C33.6108 16.1377 30.1278 15.0347 27.3801 14.8025V10.4102H24.6711V14.7639H22.8523V10.4102H20.1433V14.7639H14.6865V17.5696H16.7183C17.6277 17.5696 18.0728 17.8405 18.0728 18.5758V30.6308C18.0728 31.6369 17.5696 31.9466 17.0278 31.9466H14.9574V34.8104H20.2206V39.2608H22.9489V34.8104H24.7678V39.2608H27.4188V34.8104H27.9992C33.572 34.8104 35.4296 32.082 35.4296 28.3669C35.3851 26.1764 33.8661 24.2917 31.7338 23.7809ZM22.8522 17.7438H24.7871C26.1416 17.7438 28.8119 17.976 28.8119 20.1818C28.9048 21.6215 27.8618 22.8831 26.4318 23.0649H22.8522C22.8522 23.0649 22.8522 17.7438 22.8522 17.7438ZM25.8514 31.6756V31.6562H22.8522V25.8513H26.3352C27.1479 25.8513 30.2051 26.1222 30.2051 28.2894C30.2051 30.4565 28.7539 31.6756 25.8514 31.6756Z" fill="white"/>
</svg>
