<svg width="157" height="60" viewBox="0 0 157 60" fill="none" xmlns="http://www.w3.org/2000/svg">
<g style="mix-blend-mode:multiply">
<path d="M49 30C49 43.2548 38.2548 54 25 54C11.7452 54 1 43.2548 1 30C1 16.7452 11.7452 6 25 6C38.2548 6 49 16.7452 49 30Z" fill="white"/>
<path d="M49 30C49 43.2548 38.2548 54 25 54C11.7452 54 1 43.2548 1 30C1 16.7452 11.7452 6 25 6C38.2548 6 49 16.7452 49 30Z" fill="white"/>
<path d="M49 30C49 43.2548 38.2548 54 25 54C11.7452 54 1 43.2548 1 30C1 16.7452 11.7452 6 25 6C38.2548 6 49 16.7452 49 30Z" fill="white"/>
<path d="M49 30C49 43.2548 38.2548 54 25 54C11.7452 54 1 43.2548 1 30C1 16.7452 11.7452 6 25 6C38.2548 6 49 16.7452 49 30Z" stroke="#6CA3EF" stroke-width="2"/>
</g>
<path d="M11 38.4961L20.546 28.9502" stroke="#6CA3EF" stroke-width="2"/>
<line x1="19.4073" y1="28.6591" x2="26.0781" y2="35.3299" stroke="#6CA3EF" stroke-width="2"/>
<line x1="25.1425" y1="34.8388" x2="34.6884" y2="25.2929" stroke="#6CA3EF" stroke-width="2"/>
<line x1="35" y1="24" x2="35" y2="30" stroke="#6CA3EF" stroke-width="2"/>
<circle cx="35" cy="30" r="1" fill="#6CA3EF"/>
<line x1="36" y1="25" x2="30" y2="25" stroke="#6CA3EF" stroke-width="2"/>
<circle cx="30" cy="25" r="1" transform="rotate(90 30 25)" fill="#6CA3EF"/>
<line x1="59.5" x2="59.5" y2="60" stroke="#204475"/>
<path d="M69.3 12.35H74.15V47H69.3V12.35ZM92.0777 47.3C91.3777 47.3 90.6111 47.2833 89.7777 47.25C88.9777 47.2167 88.1611 47.1667 87.3277 47.1C86.5277 47.0333 85.7277 46.95 84.9277 46.85C84.1277 46.75 83.3944 46.6167 82.7277 46.45V12.85C83.3944 12.6833 84.1277 12.55 84.9277 12.45C85.7277 12.35 86.5277 12.2667 87.3277 12.2C88.1611 12.1333 88.9777 12.0833 89.7777 12.05C90.5777 12.0167 91.3277 12 92.0277 12C94.0277 12 95.8944 12.15 97.6277 12.45C99.3944 12.75 100.911 13.2667 102.178 14C103.478 14.7 104.494 15.6333 105.228 16.8C105.961 17.9667 106.328 19.4 106.328 21.1C106.328 23 105.878 24.5667 104.978 25.8C104.078 27 102.878 27.9 101.378 28.5C103.411 29.1 105.028 30.05 106.228 31.35C107.428 32.65 108.028 34.4833 108.028 36.85C108.028 40.3167 106.744 42.9333 104.178 44.7C101.644 46.4333 97.6111 47.3 92.0777 47.3ZM87.5277 30.85V43.05C87.8944 43.0833 88.3277 43.1167 88.8277 43.15C89.2611 43.1833 89.7611 43.2167 90.3277 43.25C90.9277 43.25 91.6111 43.25 92.3777 43.25C93.8111 43.25 95.1611 43.1667 96.4277 43C97.7277 42.8 98.8611 42.4667 99.8277 42C100.794 41.5333 101.561 40.8833 102.128 40.05C102.728 39.2167 103.028 38.1667 103.028 36.9C103.028 35.7667 102.811 34.8167 102.378 34.05C101.944 33.25 101.311 32.6167 100.478 32.15C99.6777 31.6833 98.7111 31.35 97.5777 31.15C96.4444 30.95 95.1777 30.85 93.7777 30.85H87.5277ZM87.5277 26.95H92.6277C93.8277 26.95 94.9611 26.8667 96.0277 26.7C97.0944 26.5333 98.0111 26.2333 98.7777 25.8C99.5777 25.3667 100.194 24.8 100.628 24.1C101.094 23.4 101.328 22.5167 101.328 21.45C101.328 20.45 101.094 19.6167 100.628 18.95C100.161 18.25 99.5111 17.7 98.6777 17.3C97.8777 16.8667 96.9277 16.55 95.8277 16.35C94.7277 16.15 93.5611 16.05 92.3277 16.05C91.0944 16.05 90.1277 16.0667 89.4277 16.1C88.7277 16.1333 88.0944 16.1833 87.5277 16.25V26.95ZM111.857 29.85H124.207V34.2H111.857V29.85ZM144.698 47.75C142.265 47.75 140.048 47.35 138.048 46.55C136.048 45.75 134.331 44.5833 132.898 43.05C131.465 41.5167 130.348 39.6333 129.548 37.4C128.781 35.1333 128.398 32.55 128.398 29.65C128.398 26.75 128.831 24.1833 129.698 21.95C130.598 19.6833 131.798 17.7833 133.298 16.25C134.798 14.7167 136.548 13.55 138.548 12.75C140.548 11.95 142.681 11.55 144.948 11.55C146.381 11.55 147.665 11.65 148.798 11.85C149.965 12.05 150.965 12.2833 151.798 12.55C152.665 12.8167 153.365 13.0833 153.898 13.35C154.431 13.6167 154.798 13.8167 154.998 13.95L153.598 17.95C153.298 17.75 152.865 17.5333 152.298 17.3C151.731 17.0667 151.081 16.8333 150.348 16.6C149.648 16.3667 148.865 16.1833 147.998 16.05C147.165 15.8833 146.315 15.8 145.448 15.8C143.615 15.8 141.965 16.1167 140.498 16.75C139.031 17.3833 137.781 18.3 136.748 19.5C135.715 20.7 134.915 22.1667 134.348 23.9C133.815 25.6 133.548 27.5167 133.548 29.65C133.548 31.7167 133.781 33.6 134.248 35.3C134.748 37 135.481 38.4667 136.448 39.7C137.415 40.9 138.615 41.8333 140.048 42.5C141.515 43.1667 143.215 43.5 145.148 43.5C147.381 43.5 149.231 43.2667 150.698 42.8C152.165 42.3333 153.265 41.9167 153.998 41.55L155.248 45.55C155.015 45.7167 154.598 45.9333 153.998 46.2C153.398 46.4333 152.648 46.6667 151.748 46.9C150.848 47.1333 149.798 47.3333 148.598 47.5C147.398 47.6667 146.098 47.75 144.698 47.75Z" fill="#204475"/>
</svg>
