<svg width="175" height="60" viewBox="0 0 175 60" fill="none" xmlns="http://www.w3.org/2000/svg">
<g style="mix-blend-mode:multiply">
<path d="M49 30C49 43.2548 38.2548 54 25 54C11.7452 54 1 43.2548 1 30C1 16.7452 11.7452 6 25 6C38.2548 6 49 16.7452 49 30Z" fill="white"/>
<path d="M49 30C49 43.2548 38.2548 54 25 54C11.7452 54 1 43.2548 1 30C1 16.7452 11.7452 6 25 6C38.2548 6 49 16.7452 49 30Z" fill="white"/>
<path d="M49 30C49 43.2548 38.2548 54 25 54C11.7452 54 1 43.2548 1 30C1 16.7452 11.7452 6 25 6C38.2548 6 49 16.7452 49 30Z" fill="white"/>
<path d="M49 30C49 43.2548 38.2548 54 25 54C11.7452 54 1 43.2548 1 30C1 16.7452 11.7452 6 25 6C38.2548 6 49 16.7452 49 30Z" stroke="#6CA3EF" stroke-width="2"/>
</g>
<path d="M11 38.4961L20.546 28.9502" stroke="#6CA3EF" stroke-width="2"/>
<line x1="19.4073" y1="28.6591" x2="26.0781" y2="35.3299" stroke="#6CA3EF" stroke-width="2"/>
<line x1="25.1425" y1="34.8388" x2="34.6884" y2="25.2929" stroke="#6CA3EF" stroke-width="2"/>
<line x1="35" y1="24" x2="35" y2="30" stroke="#6CA3EF" stroke-width="2"/>
<circle cx="35" cy="30" r="1" fill="#6CA3EF"/>
<line x1="36" y1="25" x2="30" y2="25" stroke="#6CA3EF" stroke-width="2"/>
<circle cx="30" cy="25" r="1" transform="rotate(90 30 25)" fill="#6CA3EF"/>
<line x1="59.5" x2="59.5" y2="60" stroke="#204475"/>
<path d="M73 11V46H77.55V11H73ZM91.5566 46H104.107C106.34 46 108.223 45.7167 109.757 45.15C111.29 44.55 112.523 43.7833 113.457 42.85C114.39 41.9167 115.057 40.8667 115.457 39.7C115.89 38.5 116.107 37.3 116.107 36.1C116.107 34.2 115.69 32.6833 114.857 31.55C114.057 30.4167 113.09 29.55 111.957 28.95C110.823 28.35 109.657 27.95 108.457 27.75C107.257 27.55 106.29 27.4333 105.557 27.4V27.2C106.723 27.2 107.823 26.9833 108.857 26.55C109.89 26.0833 110.79 25.5 111.557 24.8C112.357 24.0667 112.99 23.2333 113.457 22.3C113.923 21.3333 114.157 20.3167 114.157 19.25C114.157 18.3167 113.957 17.3667 113.557 16.4C113.157 15.4333 112.54 14.55 111.707 13.75C110.907 12.95 109.857 12.3 108.557 11.8C107.29 11.2667 105.79 11 104.057 11H91.5566V46ZM96.1066 43.8V28.5H101.607C103.24 28.5 104.657 28.7167 105.857 29.15C107.057 29.5833 108.04 30.1667 108.807 30.9C109.607 31.6333 110.19 32.4833 110.557 33.45C110.957 34.4167 111.157 35.4333 111.157 36.5C111.157 37.6667 110.94 38.7 110.507 39.6C110.107 40.5 109.557 41.2667 108.857 41.9C108.157 42.5333 107.323 43.0167 106.357 43.35C105.423 43.65 104.423 43.8 103.357 43.8H96.1066ZM96.1066 26.3V13.2H102.207C103.507 13.2 104.607 13.3833 105.507 13.75C106.44 14.1167 107.19 14.6 107.757 15.2C108.357 15.8 108.79 16.4833 109.057 17.25C109.323 18.0167 109.457 18.7833 109.457 19.55C109.457 20.5167 109.257 21.4167 108.857 22.25C108.49 23.0833 107.957 23.8 107.257 24.4C106.59 25 105.807 25.4667 104.907 25.8C104.04 26.1333 103.107 26.3 102.107 26.3H96.1066ZM133.963 30.75V34.5H121.613V30.75H133.963ZM172.423 39.55C169.023 42.75 164.989 44.35 160.323 44.35C157.723 44.35 155.423 43.9 153.423 43C151.423 42.1 149.756 40.9 148.423 39.4C147.089 37.9 146.073 36.1667 145.373 34.2C144.706 32.2333 144.373 30.1833 144.373 28.05C144.373 25.7833 144.723 23.7167 145.423 21.85C146.156 19.95 147.173 18.3167 148.473 16.95C149.773 15.5833 151.306 14.5167 153.073 13.75C154.873 12.9833 156.823 12.6 158.923 12.6C160.356 12.6 161.656 12.7667 162.823 13.1C164.023 13.4333 165.073 13.8667 165.973 14.4C166.906 14.9333 167.656 15.55 168.223 16.25C168.823 16.9167 169.239 17.6 169.473 18.3H173.173C172.673 17.1667 172.023 16.1167 171.223 15.15C170.456 14.1833 169.489 13.35 168.323 12.65C167.156 11.95 165.789 11.4 164.223 11C162.656 10.6 160.873 10.4 158.873 10.4C155.973 10.4 153.323 10.8167 150.923 11.65C148.556 12.4833 146.523 13.6833 144.823 15.25C143.123 16.7833 141.806 18.65 140.873 20.85C139.939 23.0167 139.473 25.45 139.473 28.15C139.473 30.4833 139.839 32.7667 140.573 35C141.339 37.2 142.506 39.1667 144.073 40.9C145.639 42.6 147.639 43.9833 150.073 45.05C152.506 46.0833 155.406 46.6 158.773 46.6C160.906 46.6 162.806 46.4 164.473 46C166.173 45.6 167.639 45.1167 168.873 44.55C170.139 43.95 171.189 43.3167 172.023 42.65C172.856 41.9833 173.489 41.4 173.923 40.9L172.423 39.55Z" fill="#204475"/>
</svg>
