<svg width="40" height="28" viewBox="0 0 40 28" fill="none" xmlns="http://www.w3.org/2000/svg">
<path d="M36.4844 0H3.51562C1.57711 0 0 1.57711 0 3.51562V23.8892C0 25.8277 1.57711 27.4048 3.51562 27.4048H36.4844C38.4229 27.4048 40 25.8277 40 23.8892V3.51562C40 1.57711 38.4229 0 36.4844 0ZM36.0255 2.34375L35.5563 2.73445L21.3948 14.5267C20.5866 15.1997 19.4133 15.1997 18.6052 14.5267L4.44367 2.73445L3.97445 2.34375H36.0255ZM2.34375 4.03578L13.8822 13.6438L2.34375 21.323V4.03578ZM36.4844 25.0611H3.51562C2.94937 25.0611 2.47578 24.6573 2.36727 24.1227L15.7614 15.2086L17.1055 16.3278C17.9441 17.0261 18.9721 17.3752 20.0001 17.3752C21.028 17.3752 22.056 17.0261 22.8947 16.3278L24.2388 15.2086L37.6328 24.1227C37.5242 24.6574 37.0506 25.0611 36.4844 25.0611ZM37.6562 21.323L26.1178 13.6439L37.6562 4.03578V21.323Z" fill="#204475"/>
</svg>
