<svg width="50" height="51" viewBox="0 0 50 51" fill="none" xmlns="http://www.w3.org/2000/svg">
<path d="M48.7179 40.4692L9.53284 1.2818C7.82387 -0.427268 5.05321 -0.427268 3.34691 1.2818L1.28173 3.34391C-0.427242 5.05351 -0.427242 7.82434 1.28173 9.53074L40.4668 48.7182C42.1763 50.4272 44.9469 50.4272 46.6532 48.7182L48.7152 46.6561C50.4274 44.9496 50.4274 42.1783 48.7179 40.4692V40.4692Z" fill="#F44336"/>
<path d="M40.4668 1.28336L1.28173 40.4708C-0.427242 42.1798 -0.427242 44.9512 1.28173 46.6576L3.3437 48.7197C5.05321 50.4288 7.82387 50.4288 9.53017 48.7197L48.7179 9.53497C50.4274 7.8259 50.4274 5.05506 48.7179 3.34866L46.6559 1.28656C44.9469 -0.425715 42.1763 -0.425715 40.4668 1.28336V1.28336Z" fill="#F44336"/>
</svg>
