<svg width="32" height="30" viewBox="0 0 32 30" fill="none" xmlns="http://www.w3.org/2000/svg">
<path d="M15.7351 0L0 13.6647L1.61076 15.5195L3.0839 14.2402V26.3152C3.0839 28.347 4.73689 30 6.76875 30H13.6471V17.9629H17.946V30H24.7016C26.7334 30 28.3864 28.347 28.3864 26.3152V14.2402L29.8596 15.5196L31.4702 13.6648L15.7351 0ZM25.9298 26.3152C25.9298 26.9924 25.3788 27.5434 24.7016 27.5434H20.4026V15.5064H11.1905V27.5435H6.76869C6.0914 27.5435 5.54042 26.9925 5.54042 26.3152V12.1069L15.7351 3.25361L25.9298 12.1069V26.3152Z" fill="white"/>
</svg>
