<svg width="110" height="41" viewBox="0 0 110 41" fill="none" xmlns="http://www.w3.org/2000/svg">
<path d="M4.69184 40.5458C3.89837 40.5458 3.16239 40.3963 2.48392 40.0974C1.80544 39.7984 1.21896 39.3901 0.724476 38.8726L1.58695 37.8722C1.98943 38.2977 2.46092 38.6427 3.0014 38.9071C3.55338 39.1601 4.12261 39.2866 4.70909 39.2866C5.45656 39.2866 6.03729 39.1199 6.45128 38.7864C6.86526 38.4414 7.07226 37.9929 7.07226 37.4409C7.07226 37.1535 7.02051 36.912 6.91701 36.7165C6.82502 36.5095 6.69277 36.337 6.52028 36.199C6.35928 36.0495 6.16379 35.9172 5.9338 35.8023C5.7038 35.6873 5.45656 35.5665 5.19207 35.44L3.57063 34.7328C3.30614 34.6178 3.0359 34.4798 2.75991 34.3188C2.48392 34.1578 2.23667 33.9623 2.01818 33.7323C1.79969 33.5023 1.62145 33.2321 1.48345 32.9216C1.34545 32.5996 1.27646 32.2316 1.27646 31.8176C1.27646 31.3922 1.3627 30.9954 1.5352 30.6274C1.71919 30.2594 1.96643 29.9432 2.27692 29.6787C2.59891 29.4027 2.97265 29.19 3.39813 29.0405C3.83512 28.891 4.31235 28.8162 4.82983 28.8162C5.50831 28.8162 6.13504 28.9485 6.71002 29.213C7.285 29.466 7.77373 29.7995 8.17622 30.2134L7.4 31.1449C7.05501 30.8114 6.66977 30.5527 6.24429 30.3687C5.8303 30.1732 5.35882 30.0755 4.82983 30.0755C4.19736 30.0755 3.68562 30.2249 3.29464 30.5239C2.91515 30.8114 2.72541 31.2139 2.72541 31.7314C2.72541 32.0074 2.77716 32.2431 2.88065 32.4386C2.99565 32.6226 3.14514 32.7894 3.32914 32.9389C3.51313 33.0768 3.71437 33.2033 3.93287 33.3183C4.15136 33.4218 4.3756 33.5196 4.60559 33.6116L6.20979 34.3016C6.53178 34.4395 6.83652 34.6005 7.12401 34.7845C7.4115 34.957 7.65874 35.164 7.86573 35.4055C8.07272 35.6355 8.23372 35.9115 8.34871 36.2335C8.47521 36.544 8.53846 36.9062 8.53846 37.3202C8.53846 37.7687 8.44646 38.1884 8.26247 38.5794C8.08997 38.9704 7.83698 39.3154 7.50349 39.6144C7.17 39.9019 6.76752 40.1319 6.29603 40.3043C5.82455 40.4653 5.28982 40.5458 4.69184 40.5458Z" fill="#414042"/>
<path d="M23.2979 40.3388V30.2307H19.8825V29.0232H28.1622V30.2307H24.7468V40.3388H23.2979Z" fill="#414042"/>
<path d="M44.4753 40.5458C43.7623 40.5458 43.1068 40.4078 42.5089 40.1319C41.9224 39.8559 41.4164 39.4649 40.9909 38.9589C40.5654 38.4414 40.2319 37.8204 39.9905 37.096C39.7605 36.36 39.6455 35.5378 39.6455 34.6293C39.6455 33.7208 39.7605 32.9101 39.9905 32.1971C40.2319 31.4727 40.5654 30.8632 40.9909 30.3687C41.4164 29.8627 41.9224 29.4775 42.5089 29.213C43.1068 28.9485 43.7623 28.8162 44.4753 28.8162C45.1883 28.8162 45.838 28.9542 46.4245 29.2302C47.0225 29.4947 47.5342 29.88 47.9597 30.3859C48.3967 30.8804 48.7302 31.4899 48.9601 32.2144C49.2016 32.9274 49.3224 33.7323 49.3224 34.6293C49.3224 35.5378 49.2016 36.36 48.9601 37.096C48.7302 37.8204 48.3967 38.4414 47.9597 38.9589C47.5342 39.4649 47.0225 39.8559 46.4245 40.1319C45.838 40.4078 45.1883 40.5458 44.4753 40.5458ZM44.4753 39.2866C44.9813 39.2866 45.4355 39.1774 45.838 38.9589C46.252 38.7404 46.6027 38.4299 46.8902 38.0274C47.1892 37.6134 47.4192 37.1247 47.5802 36.5612C47.7412 35.9862 47.8217 35.3423 47.8217 34.6293C47.8217 33.9278 47.7412 33.2953 47.5802 32.7319C47.4192 32.1684 47.1892 31.6911 46.8902 31.3002C46.6027 30.9092 46.252 30.6102 45.838 30.4032C45.4355 30.1847 44.9813 30.0755 44.4753 30.0755C43.9693 30.0755 43.5093 30.1847 43.0953 30.4032C42.6929 30.6102 42.3421 30.9092 42.0431 31.3002C41.7556 31.6911 41.5314 32.1684 41.3704 32.7319C41.2094 33.2953 41.1289 33.9278 41.1289 34.6293C41.1289 35.3423 41.2094 35.9862 41.3704 36.5612C41.5314 37.1247 41.7556 37.6134 42.0431 38.0274C42.3421 38.4299 42.6929 38.7404 43.0953 38.9589C43.5093 39.1774 43.9693 39.2866 44.4753 39.2866Z" fill="#414042"/>
<path d="M66.5556 40.5458C65.8426 40.5458 65.1872 40.4136 64.5892 40.1491C63.9912 39.8846 63.468 39.5051 63.0195 39.0106C62.5825 38.5047 62.2375 37.8894 61.9845 37.165C61.743 36.429 61.6223 35.601 61.6223 34.681C61.6223 33.7726 61.7488 32.9561 62.0018 32.2316C62.2548 31.5072 62.6055 30.8919 63.054 30.3859C63.5025 29.88 64.0315 29.4947 64.6409 29.2302C65.2504 28.9542 65.9174 28.8162 66.6419 28.8162C67.3318 28.8162 67.9356 28.96 68.4531 29.2475C68.982 29.5235 69.4133 29.8455 69.7468 30.2134L68.9705 31.1449C68.6715 30.8229 68.3323 30.5642 67.9528 30.3687C67.5733 30.1732 67.1421 30.0755 66.6591 30.0755C66.1186 30.0755 65.6299 30.1847 65.1929 30.4032C64.7559 30.6102 64.3822 30.9149 64.0717 31.3174C63.7612 31.7084 63.5197 32.1856 63.3472 32.7491C63.1862 33.3126 63.1057 33.9451 63.1057 34.6465C63.1057 35.3595 63.1862 36.0035 63.3472 36.5785C63.5197 37.142 63.7555 37.6249 64.0545 38.0274C64.3534 38.4299 64.7157 38.7404 65.1412 38.9589C65.5782 39.1774 66.0669 39.2866 66.6074 39.2866C67.1593 39.2866 67.6423 39.1774 68.0563 38.9589C68.4703 38.7289 68.8613 38.4127 69.2293 38.0102L70.0228 38.9071C69.5743 39.4246 69.0683 39.8271 68.5048 40.1146C67.9413 40.4021 67.2916 40.5458 66.5556 40.5458Z" fill="#414042"/>
<path d="M82.6543 40.3388V29.0232H84.086V34.6983H84.1378L88.8468 29.0232H90.4683L86.9321 33.3356L91.0203 40.3388H89.4161L86.0352 34.4568L84.086 36.751V40.3388H82.6543Z" fill="#414042"/>
<path d="M106.153 40.5458C105.36 40.5458 104.624 40.3963 103.945 40.0974C103.267 39.7984 102.681 39.3901 102.186 38.8726L103.048 37.8722C103.451 38.2977 103.922 38.6427 104.463 38.9071C105.015 39.1601 105.584 39.2866 106.171 39.2866C106.918 39.2866 107.499 39.1199 107.913 38.7864C108.327 38.4414 108.534 37.9929 108.534 37.4409C108.534 37.1535 108.482 36.912 108.379 36.7165C108.287 36.5095 108.154 36.337 107.982 36.199C107.821 36.0495 107.625 35.9172 107.395 35.8023C107.165 35.6873 106.918 35.5665 106.654 35.44L105.032 34.7328C104.768 34.6178 104.497 34.4798 104.221 34.3188C103.945 34.1578 103.698 33.9623 103.48 33.7323C103.261 33.5023 103.083 33.2321 102.945 32.9216C102.807 32.5996 102.738 32.2316 102.738 31.8176C102.738 31.3922 102.824 30.9954 102.997 30.6274C103.181 30.2594 103.428 29.9432 103.738 29.6787C104.06 29.4027 104.434 29.19 104.86 29.0405C105.297 28.891 105.774 28.8162 106.291 28.8162C106.97 28.8162 107.597 28.9485 108.172 29.213C108.747 29.466 109.235 29.7995 109.638 30.2134L108.862 31.1449C108.517 30.8114 108.131 30.5527 107.706 30.3687C107.292 30.1732 106.82 30.0755 106.291 30.0755C105.659 30.0755 105.147 30.2249 104.756 30.5239C104.377 30.8114 104.187 31.2139 104.187 31.7314C104.187 32.0074 104.239 32.2431 104.342 32.4386C104.457 32.6226 104.607 32.7894 104.791 32.9389C104.975 33.0768 105.176 33.2033 105.394 33.3183C105.613 33.4218 105.837 33.5196 106.067 33.6116L107.671 34.3016C107.993 34.4395 108.298 34.6005 108.586 34.7845C108.873 34.957 109.12 35.164 109.327 35.4055C109.534 35.6355 109.695 35.9115 109.81 36.2335C109.937 36.544 110 36.9062 110 37.3202C110 37.7687 109.908 38.1884 109.724 38.5794C109.552 38.9704 109.299 39.3154 108.965 39.6144C108.632 39.9019 108.229 40.1319 107.758 40.3043C107.286 40.4653 106.751 40.5458 106.153 40.5458Z" fill="#414042"/>
<path d="M80.6375 0.000352859V2.39209H70.951V7.77349H80.0993V10.1652H70.951V18.4167H68.1406V0.0601316H80.6375V0.000352859Z" fill="#0D2740"/>
<path d="M88.9218 0V18.4164H86.1624V0H88.9218Z" fill="#0D2740"/>
<path d="M109.854 -6.10352e-05H107.091V2.53219H109.854V-6.10352e-05Z" fill="#0D2740"/>
<path d="M109.854 7.82689H107.091V18.4163H109.854V7.82689Z" fill="#0D2740"/>
<path d="M97.2661 0.000102997H94.4467V18.4165H97.2661V4.55918H97.3861L106.864 18.4165H109.864L97.2661 0.000102997Z" fill="#0D2740"/>
<path d="M51.6316 2.51132C50.0772 0.837108 47.8651 3.05176e-05 44.8758 3.05176e-05H38.1797V2.39177H40.9897H44.3377C46.6694 2.39177 48.3434 2.92993 49.4195 4.06601C50.4359 5.14229 50.974 6.81649 50.974 9.20822C50.974 11.5402 50.4359 13.2144 49.3598 14.3504C48.2836 15.4865 46.5498 16.0247 44.2182 16.0247H40.8701V7.83295H38.0601V18.4164H44.6964C47.6857 18.4164 49.8979 17.5793 51.4523 15.9648C52.947 14.3504 53.6644 12.1381 53.6644 9.268C53.7839 6.33813 53.0665 4.06595 51.6316 2.51132Z" fill="#0D2740"/>
<path d="M33.0399 3.05176e-05V2.39177H22.6957V7.77317H32.4454V10.1649H22.6957V16.0247H33.456V18.4164H19.9016V0.0598093H33.0399V3.05176e-05Z" fill="#0D2740"/>
<path d="M14.1577 15.7686L13.8577 13.2408C13.6777 11.4353 12.7179 10.352 11.0982 9.99086V9.93069C12.118 9.68996 12.8979 9.14833 13.4978 8.30575C14.0377 7.58354 14.2776 6.25948 14.2776 5.29653C14.2776 3.55119 13.7377 2.22709 12.5979 1.26414C11.5181 0.421558 10.0183 0.000282288 8.15864 0.000282288H0V2.40765H2.81951H7.79872C9.1185 2.40765 10.0183 2.64844 10.6182 3.12991C11.1581 3.61139 11.5181 4.33357 11.5181 5.3567C11.5181 6.31965 11.2181 7.52334 10.6182 8.065C10.0183 8.60665 9.05849 8.84742 7.85869 8.84742H2.87948V7.82725H0.0599755V18.4167H2.87948V11.1945H7.85869C8.93851 11.1945 9.71839 11.3752 10.2583 11.8566C10.7982 12.3381 11.1581 13.0603 11.2181 14.0834L11.4581 15.9491C11.5781 16.9723 11.818 17.8148 12.2379 18.3565H15.2975C14.6376 17.8148 14.2776 16.9121 14.1577 15.7686Z" fill="#0D2740"/>
</svg>
