<svg width="84" height="50" viewBox="0 0 84 50" fill="none" xmlns="http://www.w3.org/2000/svg">
<path d="M58.5112 7.96973e-07C52.0605 0.00172511 46.1806 2.44681 41.7491 6.46274C37.3142 2.45198 31.4377 0.00517419 24.994 0.00517419C24.9405 0.00517419 24.8853 0.00517419 24.8336 0.00517419C11.1115 0.0948386 0 11.2581 0 24.9991C0 38.7954 11.1977 49.9914 24.9922 49.9914C31.436 49.9914 37.3125 47.548 41.7457 43.5338C40.8197 42.6975 39.9817 41.7716 39.1903 40.8025H44.3511C43.5735 41.756 42.7251 42.6492 41.8129 43.4804H41.8095C41.7888 43.5028 41.7664 43.5166 41.7457 43.5355C46.1824 47.5532 52.0657 50.0017 58.5198 50C72.323 49.9948 83.5086 38.8006 83.5052 24.9991C83.5052 24.994 83.5052 24.9905 83.5052 24.9871C83.5069 11.1856 72.3144 -0.00344784 58.5112 7.96973e-07ZM39.4765 9.04404H44.227C44.9271 9.8924 45.5771 10.7856 46.1668 11.7202H37.6918C38.2384 10.827 38.8385 9.90792 39.4765 9.04404ZM36.2158 14.3446H47.6084C48.0136 15.2102 48.3722 16.1051 48.6861 17.0224H34.8657C35.0036 16.7638 35.4864 15.7223 36.2158 14.3446ZM10.2028 31.3653L11.7185 21.8092L8.29913 31.3653H6.46619L6.22823 21.8092L4.6091 31.3653H2.04159L4.1694 18.6916H8.05256L8.18878 26.4683L10.8115 18.6916H15.024L12.9255 31.3653H10.2028ZM19.2813 31.3446L19.3692 30.3324C19.3279 30.3376 18.5174 31.555 16.6396 31.555C15.6568 31.555 14.0704 31.0187 14.0704 28.6874C14.0704 25.7233 16.4879 24.7405 18.7899 24.7405C19.152 24.7405 19.9331 24.806 19.9331 24.806C19.9331 24.806 20.021 24.625 20.021 24.1353C20.021 23.33 19.2968 23.2196 18.3053 23.2196C16.5586 23.2196 15.405 23.6869 15.405 23.6869L15.7913 21.3936C15.7913 21.3936 17.1914 20.8073 19.014 20.8073C19.9572 20.8073 22.6696 20.9073 22.6696 24.0163L21.6246 31.3446H19.2813ZM29.184 28.1167C29.184 31.6533 25.7578 31.5015 25.1595 31.5015C22.9265 31.5015 22.2368 31.1929 22.173 31.1756L22.5282 28.8478C22.5316 28.8271 23.649 29.253 24.8922 29.253C25.6095 29.253 26.5407 29.1823 26.5407 28.3253C26.5407 27.0424 23.2093 27.3494 23.2093 24.3025C23.2093 21.6143 25.2061 20.828 27.1752 20.828C28.6961 20.828 29.6306 21.0367 29.6306 21.0367L29.2944 23.3852C29.2944 23.3852 27.8512 23.2662 27.477 23.2662C26.5303 23.2662 26.0148 23.4731 26.0148 24.1353C26.013 25.4664 29.184 24.8146 29.184 28.1167ZM33.2983 29.0444C33.5345 29.0444 33.8018 28.9633 33.9845 28.9633L33.6518 31.2239C33.3845 31.2981 32.6275 31.5671 31.6567 31.574C30.4169 31.5843 29.5358 30.8911 29.5358 29.3185C29.5358 28.2633 31.048 19.5675 31.1067 19.5106H33.7673L33.4966 21.066H34.8243L34.4846 23.5714H33.0758L32.3275 28.1874C32.2706 28.5547 32.3723 29.0444 33.2983 29.0444ZM39.1506 20.7728C42.0716 20.7728 42.9458 22.911 42.9458 24.6646C42.9458 25.3664 42.5941 27.0907 42.5941 27.0907H37.1866C37.1866 27.0907 36.6865 29.2203 39.5437 29.2203C40.8835 29.2203 42.3699 28.565 42.3699 28.565L41.9009 31.1291C41.9009 31.1291 41.0422 31.5671 39.0902 31.5671C36.9745 31.5671 34.4932 30.6721 34.4932 26.9131C34.4949 23.6559 36.4745 20.7728 39.1506 20.7728ZM46.1979 38.2281H37.3314C36.7917 37.3659 36.2882 36.4814 35.8554 35.5519H47.6549C47.2204 36.4762 46.7341 37.3694 46.1979 38.2281ZM45.603 31.3843H42.8717L44.5322 21.0694H47.01L46.7721 22.5644C46.7721 22.5644 47.6549 20.9384 48.8464 20.9384C49.193 20.9384 49.3603 20.9729 49.3603 20.9729C49.0068 21.6936 48.6947 22.354 48.3705 24.0594C46.522 23.4041 46.3807 26.9787 45.603 31.3843ZM56.0092 31.2239C56.0092 31.2239 54.578 31.5895 53.6814 31.5895C50.5052 31.5895 48.893 29.3979 48.893 26.0786C48.893 21.0729 51.8812 18.4071 54.9522 18.4071C56.3403 18.4071 57.9491 19.0589 57.9491 19.0589L57.5146 21.8781C57.5146 21.8781 56.4265 21.1177 55.0729 21.1177C53.2624 21.1177 51.6381 22.8455 51.6381 25.9854C51.6381 27.5322 52.3951 28.9737 54.2849 28.9737C55.1833 28.9737 56.4851 28.3202 56.4851 28.3202L56.0092 31.2239ZM62.4151 31.3498L62.5047 30.3307C62.4616 30.3359 61.6512 31.5533 59.7751 31.5533C58.7923 31.5533 57.2059 31.017 57.2059 28.6857C57.2059 25.7216 59.6234 24.7388 61.9236 24.7388C62.2857 24.7388 63.0686 24.8043 63.0686 24.8043C63.0686 24.8043 63.1582 24.625 63.1582 24.1353C63.1582 23.33 62.434 23.2196 61.4408 23.2196C59.6941 23.2196 58.5423 23.6869 58.5423 23.6869L58.9285 21.3936C58.9285 21.3936 60.3286 20.8073 62.153 20.8073C63.0944 20.8073 65.8085 20.9073 65.8068 24.0163L64.7619 31.3446C64.7601 31.3498 62.4151 31.3498 62.4151 31.3498ZM67.9449 31.3843H65.2136L66.8741 21.0694H69.3537L69.1158 22.5644C69.1158 22.5644 70.0003 20.9384 71.1918 20.9384C71.5384 20.9384 71.704 20.9729 71.704 20.9729C71.3522 21.6936 71.0366 22.354 70.7142 24.0594C68.864 23.4041 68.7226 26.9787 67.9449 31.3843ZM76.0992 31.3567L76.2148 30.4066C76.2148 30.4066 75.3319 31.5205 73.7352 31.5205C71.5229 31.5205 70.4383 29.3841 70.4383 27.2011C70.4383 23.8249 72.4696 20.8815 74.9077 20.8815C76.4769 20.8849 77.4787 22.2695 77.4787 22.2695L78.0546 18.7088L80.7221 18.7037L78.6874 31.3567H76.0992V31.3567ZM81.3619 30.9998C81.2912 31.1274 81.1911 31.2256 81.0635 31.3015C80.9377 31.3722 80.8032 31.4084 80.6618 31.4084C80.5238 31.4084 80.3911 31.3722 80.2635 31.3015C80.1359 31.2256 80.0359 31.1274 79.9652 30.9998C79.8927 30.8704 79.8582 30.7394 79.8582 30.5997C79.8582 30.4583 79.8945 30.3238 79.9652 30.1962C80.0359 30.0686 80.141 29.9652 80.2669 29.8962C80.398 29.8255 80.5273 29.7893 80.6618 29.7893C80.7997 29.7893 80.9308 29.8255 81.0584 29.8962C81.1894 29.9669 81.2894 30.0652 81.3619 30.1962C81.436 30.3255 81.4688 30.46 81.4688 30.5997C81.4688 30.7394 81.4343 30.8722 81.3619 30.9998Z" fill="white"/>
<path d="M81.1475 38.6262C81.1302 38.6142 81.1147 38.5952 81.0871 38.5849C81.0596 38.5745 81.0164 38.5693 80.9492 38.5693H80.7871V38.828H80.9595C81.0406 38.828 81.094 38.8211 81.1251 38.7918C81.1544 38.7676 81.1682 38.7383 81.1682 38.6969C81.1682 38.6693 81.1613 38.6504 81.1475 38.6262Z" fill="white"/>
<path d="M81.7043 38.4714C81.6302 38.3369 81.5284 38.2421 81.3991 38.1714C81.2698 38.1007 81.1387 38.0645 81.0042 38.0645C80.8663 38.0645 80.7353 38.1007 80.6077 38.1714C80.4801 38.2421 80.3749 38.3403 80.3042 38.4714C80.23 38.599 80.1973 38.7335 80.1973 38.8714C80.1973 39.0094 80.2335 39.1456 80.3042 39.2715C80.3783 39.3991 80.4783 39.5025 80.6042 39.5732C80.7318 39.6439 80.8663 39.6801 81.0077 39.6801C81.1456 39.6801 81.2801 39.6439 81.406 39.5732C81.5319 39.5025 81.6336 39.3991 81.7043 39.2715C81.7767 39.1456 81.8112 39.0111 81.8112 38.8714C81.8112 38.7318 81.775 38.5973 81.7043 38.4714ZM81.2077 39.3198L81.1318 39.1835C81.0715 39.0766 81.0215 39.0059 80.9836 38.9783C80.9594 38.9611 80.9215 38.9473 80.8732 38.9473H80.7922V39.318H80.6508V38.4473H80.9508C81.0543 38.4473 81.1284 38.4559 81.1698 38.4731C81.2163 38.4904 81.256 38.5145 81.2801 38.5576C81.3077 38.5973 81.3198 38.6404 81.3198 38.6852C81.3198 38.749 81.2957 38.8025 81.2526 38.8525C81.2077 38.8973 81.1456 38.9266 81.0715 38.9318C81.1025 38.9421 81.1267 38.9594 81.1456 38.9783C81.1819 39.0128 81.2232 39.0697 81.275 39.149L81.3819 39.3198H81.2077V39.3198Z" fill="white"/>
<path d="M19.0052 26.7188C17.055 26.7188 16.6602 27.5947 16.6602 28.3241C16.6602 28.7 16.8757 29.3276 17.7016 29.3276C19.3035 29.3276 19.6363 27.2274 19.5846 26.7808C19.5087 26.7653 19.4604 26.7205 19.0052 26.7188Z" fill="white"/>
<path d="M39.1611 23.1533C37.711 23.1533 37.4316 24.8035 37.4316 24.9776H40.3854C40.3854 24.8449 40.663 23.1533 39.1611 23.1533Z" fill="white"/>
<path d="M75.3685 23.4414C74.1977 23.4414 73.2717 24.8002 73.2734 26.8642C73.2734 28.1229 73.7218 28.9299 74.6805 28.9299C76.122 28.9299 76.8169 27.0487 76.8169 25.6468C76.8169 24.1001 76.3255 23.4414 75.3685 23.4414Z" fill="white"/>
<path d="M81.2409 30.2664C81.1805 30.1595 81.096 30.0768 80.9891 30.0164C80.8822 29.9561 80.7736 29.9268 80.6598 29.9268C80.5494 29.9268 80.4374 29.9578 80.3304 30.0164C80.2235 30.0716 80.139 30.1578 80.0787 30.2664C80.0183 30.3751 79.9873 30.4906 79.9873 30.6027C79.9873 30.7182 80.0183 30.832 80.0752 30.9372C80.139 31.0441 80.2201 31.1252 80.327 31.189C80.4339 31.2476 80.5443 31.2821 80.6598 31.2821C80.7753 31.2821 80.8891 31.2476 80.9926 31.189C81.0995 31.1286 81.1823 31.0458 81.2443 30.9372C81.3047 30.8303 81.3323 30.7182 81.3323 30.6027C81.3323 30.4889 81.3012 30.3751 81.2409 30.2664ZM80.8667 31.0458L80.7891 30.9113C80.7288 30.8027 80.6805 30.7337 80.6443 30.7079C80.615 30.6855 80.5805 30.6751 80.5305 30.6751H80.4511V31.0441H80.3063V30.1751H80.6081C80.7098 30.1751 80.7857 30.1837 80.8288 30.2027C80.8719 30.2182 80.9098 30.2475 80.9391 30.2854C80.9684 30.3234 80.9788 30.3665 80.9788 30.413C80.9788 30.4768 80.9546 30.5303 80.9098 30.5785C80.865 30.6286 80.8029 30.6492 80.7305 30.6579C80.765 30.6717 80.7874 30.6872 80.8046 30.7027C80.8408 30.7389 80.8822 30.7906 80.9322 30.8734L81.0391 31.0458C81.0391 31.0458 80.8667 31.0458 80.8667 31.0458Z" fill="white"/>
<path d="M62.1419 26.7188C60.1917 26.7188 59.7969 27.5947 59.7969 28.3241C59.7969 28.7 60.0107 29.3276 60.8384 29.3276C62.4403 29.3276 62.7713 27.2274 62.7213 26.7808C62.6437 26.7653 62.5954 26.7205 62.1419 26.7188Z" fill="white"/>
<path d="M80.8091 30.3523C80.7953 30.3351 80.7763 30.3213 80.7505 30.3092C80.7211 30.3006 80.678 30.292 80.6091 30.292V30.2937H80.4521V30.5558H80.6229C80.7039 30.5558 80.7574 30.5455 80.7901 30.5196C80.816 30.4937 80.8315 30.461 80.8315 30.423C80.8315 30.3937 80.8246 30.3765 80.8091 30.3523Z" fill="white"/>
</svg>
