<svg width="111" height="30" viewBox="0 0 111 30" fill="none" xmlns="http://www.w3.org/2000/svg">
<path d="M19.8624 4.88616C19.4996 4.15847 18.9258 3.55829 18.2135 3.10761C17.4705 2.65253 16.5933 2.33375 15.5908 2.14468C14.5707 1.96001 13.3923 1.87647 12.0271 1.86328L5.7241 1.86768C5.06896 1.87647 4.42701 2.38651 4.27312 3.01967L0.0322989 21.4911C-0.121593 22.1155 0.289518 22.6387 0.944659 22.6387H3.96314C4.61828 22.6387 5.26682 22.1309 5.41192 21.4911L6.4474 17.0063C6.5859 16.3819 7.23225 15.8609 7.89398 15.8609H8.75797C12.4492 15.8565 15.3072 15.1024 17.3605 13.592C19.4249 12.0795 20.4428 10.0811 20.4428 7.60565C20.4406 6.52181 20.2625 5.61165 19.8624 4.88616ZM13.3527 10.9209C12.4404 11.5893 11.1719 11.9234 9.53623 11.9234H8.79755C8.14021 11.9234 7.73789 11.4046 7.88079 10.7714L8.78875 6.84938C8.91626 6.22062 9.578 5.69959 10.2265 5.70399L11.2158 5.69739C12.37 5.69739 13.2516 5.89745 13.8408 6.28438C14.4234 6.66691 14.7158 7.27588 14.7114 8.08272C14.729 9.30946 14.2607 10.2526 13.3527 10.9209Z" fill="white"/>
<path d="M105.91 3.31087L105.721 3.36804L105.468 3.40321L105.158 3.35484L105 3.20095L104.927 2.95912L104.923 2.59638V1.25312H105.932V0.837609H104.923V0H104.424V0.837609H104.085V1.25312H104.424V2.81622L104.657 3.59008L105.342 3.83631L105.63 3.81212L105.936 3.75276V3.31087H105.91Z" fill="white"/>
<path d="M110.591 1.05069L109.87 0.753906L109.338 0.86163L108.797 1.22657L108.483 0.877019L107.973 0.756103L107.482 0.863827L107.019 1.16282V0.837444H106.528V3.77239H107.016V1.58052L107.427 1.3255L107.836 1.22437L108.171 1.28373L108.335 1.45301L108.408 1.73442L108.432 2.09716V3.77458H108.922V1.8971L108.914 1.74101L108.905 1.59811L109.323 1.3321L109.736 1.22877L110.059 1.28813L110.235 1.45741L110.296 1.74101L110.329 2.09936V3.77678H110.822V1.87072L110.591 1.05069Z" fill="white"/>
<path d="M34.4194 7.52835C33.2806 6.8864 31.4822 6.56543 29.0244 6.56543C27.8086 6.56543 26.5973 6.65996 25.3727 6.84903C24.4692 6.98753 24.3812 7.01391 23.825 7.13483C22.6774 7.38545 22.4971 8.53085 22.4971 8.53085L22.1278 10.05C21.9189 11.0195 22.4774 10.9821 22.7104 10.9008C23.2116 10.7513 23.4908 10.5974 24.5153 10.3688C25.4936 10.1467 26.5247 9.97963 27.3425 9.99062C28.5495 9.99062 29.4728 10.1181 30.0884 10.3776C30.6952 10.6414 30.9986 11.0943 30.9986 11.7494L30.9458 12.1759L30.5105 12.4441C28.7979 12.5518 27.5602 12.7101 26.0586 12.9278C24.5901 13.1322 23.3018 13.4906 22.2311 13.9808C21.0813 14.4865 20.2283 15.1658 19.6325 16.0298C19.0566 16.8982 18.7686 17.9512 18.7686 19.1868C18.7686 20.3498 19.1863 21.3105 19.9975 22.0536C20.8131 22.7834 21.8904 23.1396 23.1787 23.1396C23.9943 23.1352 24.6252 23.0714 25.0737 22.9637L26.5357 22.4603L27.7734 21.7744L28.9122 21.0225L28.9276 21.0445L28.8133 21.5281L28.8067 21.5479V21.5523C28.6836 22.1415 29.0397 22.6252 29.6135 22.6823L29.6245 22.6955H29.6773H31.9923H32.4276L32.4671 22.6779C33.0695 22.6076 33.6345 22.1239 33.7664 21.5479L35.9671 12.022L36.0814 11.2459L36.1342 10.5183C36.143 9.1684 35.5604 8.1681 34.4194 7.52835ZM29.552 18.2392L29.0815 18.8592L27.8943 19.4726C27.3359 19.699 26.8061 19.8133 26.3159 19.8133C25.5728 19.8133 24.9902 19.7056 24.5967 19.4858L24.0141 18.3536C24.0141 17.7402 24.1548 17.2543 24.456 16.8806L25.7355 16.01C26.2829 15.8253 26.9512 15.6692 27.7251 15.5615C28.4154 15.4758 29.7784 15.3197 29.9565 15.3153L30.1654 15.6824C30.1236 15.8913 29.7367 17.5093 29.552 18.2392Z" fill="white"/>
<path d="M89.2436 7.5413C88.0982 6.89935 86.3021 6.57617 83.8508 6.57617C82.635 6.57617 81.4215 6.67071 80.2013 6.86637C79.2956 6.99828 79.2054 7.02686 78.647 7.14557C77.5016 7.394 77.3236 8.54379 77.3236 8.54379L76.9542 10.0607C76.7476 11.0302 77.2928 10.9863 77.5478 10.9115C78.0512 10.762 78.3217 10.6147 79.3373 10.3773C80.3113 10.1575 81.3511 9.99477 82.1712 9.99917C83.3737 9.99917 84.2971 10.1289 84.9104 10.3883C85.5216 10.6521 85.8206 11.1094 85.8206 11.7579L85.7744 12.1822L85.3435 12.457C83.6133 12.5604 82.3734 12.7187 80.8873 12.9363C79.4231 13.1408 78.1304 13.4969 77.0575 13.9894C75.9121 14.4972 75.0482 15.1765 74.459 16.0427C73.8764 16.9111 73.5928 17.962 73.5928 19.1865C73.5928 20.3583 74.0061 21.319 74.8283 22.0577C75.6483 22.7854 76.7146 23.1503 78.0029 23.1503C78.8141 23.1415 79.4451 23.0888 79.8958 22.9723L81.3533 22.4754L82.6021 21.7895L83.7321 21.0288L83.7518 21.053L83.6485 21.5411L83.6375 21.5499L83.6419 21.5587C83.5056 22.1478 83.864 22.6359 84.4444 22.6887L84.4488 22.6997H84.5015C84.8819 22.6997 86.1965 22.6997 86.8231 22.6997H87.2496L87.2958 22.6843C87.8915 22.6117 88.4543 22.1281 88.5797 21.5455L90.7869 12.0327L90.9034 11.2523L90.9672 10.5224C90.9694 9.17695 90.3934 8.18105 89.2436 7.5413ZM84.3872 18.2522L83.8969 18.8787L82.7208 19.4877C82.1624 19.712 81.6303 19.8285 81.1489 19.8285C80.3816 19.8285 79.8144 19.7185 79.4319 19.4987L78.8427 18.3709C78.8427 17.7553 78.9856 17.2739 79.2736 16.8935C79.566 16.5352 80.0123 16.2406 80.5663 16.0251C81.1071 15.8405 81.7754 15.691 82.5537 15.5789C83.2396 15.4931 84.5983 15.3326 84.7741 15.3304L84.9874 15.6976C84.9566 15.9064 84.5675 17.5179 84.3872 18.2522Z" fill="white"/>
<path d="M74.6795 4.95476C74.3013 4.22268 73.7341 3.63129 73.0174 3.16962C72.2831 2.71234 71.4125 2.39136 70.3947 2.20669C69.3944 2.02862 68.2006 1.93189 66.8442 1.92969L60.5324 1.93408C59.875 1.94507 59.2441 2.45512 59.0924 3.08168L54.8472 21.5619C54.6933 22.1885 55.1154 22.7073 55.7573 22.7073L58.7802 22.7029C59.4222 22.7073 60.0795 22.1929 60.2312 21.5597L61.2535 17.0727C61.403 16.4483 62.0515 15.9229 62.7045 15.9273H63.5685C67.2641 15.9273 70.1287 15.1666 72.1908 13.6607C74.2288 12.1371 75.2598 10.1431 75.2598 7.66546C75.2489 6.58602 75.062 5.67366 74.6795 4.95476ZM68.1698 10.9983C67.2597 11.6535 65.989 11.9876 64.3621 11.9876H63.6102C62.9617 11.9942 62.5418 11.4666 62.6869 10.8378L63.6014 6.92238C63.7355 6.29582 64.3907 5.77039 65.0436 5.77699L66.0219 5.77039C67.1827 5.77699 68.0533 5.96825 68.6469 6.35518C69.2383 6.74211 69.5175 7.34888 69.5241 8.15352C69.5307 9.38026 69.0756 10.3256 68.1698 10.9983Z" fill="white"/>
<path d="M100.563 3.23022C100.701 2.59926 100.305 2.08702 99.6568 2.09581H96.9527C96.3987 2.09581 95.8996 2.50693 95.6556 3.01257L95.5061 3.24561L95.3698 3.84359L91.5906 21.0223L91.4675 21.55L91.4719 21.5631C91.3466 22.1282 91.694 22.5547 92.2304 22.636L92.2765 22.6998H95.084C95.6336 22.6998 96.1502 22.282 96.3855 21.7676L96.5306 21.5478L100.571 3.23242L100.563 3.23022Z" fill="white"/>
<path d="M54.931 6.79517C54.2165 6.80397 51.3123 6.79517 51.3123 6.79517C50.6616 6.79517 49.8262 7.3206 49.4129 7.94716C49.4129 7.94716 45.0907 15.3648 44.6708 16.11L44.1695 16.1034L42.8241 7.99773C42.6746 7.36017 42.0085 6.81496 41.1796 6.81496L38.4755 6.81935C37.8248 6.81935 37.4247 7.33819 37.572 7.97135C37.572 7.97135 39.6253 19.6561 40.0364 22.4064C40.2277 23.9233 40.0123 24.1938 40.0123 24.1938L37.3389 28.8501C36.9432 29.4832 37.1565 29.9999 37.805 29.9999L40.9312 29.9955C41.5819 29.9955 42.4371 29.4832 42.8241 28.8479L54.8496 8.50777C54.8496 8.50997 56.006 6.77099 54.931 6.79517Z" fill="white"/>
</svg>
