<svg width="40" height="40" viewBox="0 0 40 40" fill="none" xmlns="http://www.w3.org/2000/svg">
<path d="M38.9701 29.5026L33.9975 24.53C32.6265 23.1592 30.3958 23.1592 29.0249 24.53L26.7647 26.7903C25.7261 27.8288 24.0361 27.8285 22.9979 26.7906L13.201 16.9854C12.16 15.9444 12.1598 14.2595 13.201 13.2183C13.565 12.8542 14.6104 11.8088 15.4612 10.9581C16.8261 9.59321 16.8452 7.36938 15.4599 5.98422L10.4886 1.0286C9.11769 -0.342265 6.88699 -0.342265 5.51972 1.025C4.49659 2.03922 4.16659 2.36641 3.70784 2.82117C-1.23591 7.76485 -1.23591 15.8088 3.70761 20.7524L19.2304 36.2833C24.1857 41.2387 32.2061 41.2391 37.1618 36.2833L38.9701 34.4751C40.341 33.1042 40.341 30.8735 38.9701 29.5026ZM7.17363 2.6861C7.63058 2.22914 8.37402 2.22906 8.83246 2.68735L13.8037 7.64298C14.2618 8.10102 14.2618 8.84235 13.8037 9.30048L12.9749 10.1292L6.3491 3.50344L7.17363 2.6861ZM20.8882 34.626L5.36534 19.0949C1.5405 15.2701 1.33026 9.26423 4.71878 5.18821L11.3254 11.7948C9.58941 13.7627 9.66175 16.7613 11.5431 18.6427L21.3397 28.4474C21.3397 28.4475 21.3399 28.4477 21.34 28.4478C23.2193 30.3271 26.2178 30.4042 28.1881 28.6659L34.7948 35.2726C30.7318 38.6553 24.7394 38.4772 20.8882 34.626ZM37.3126 32.8176L36.4838 33.6464L29.8537 27.0163L30.6824 26.1875C31.1394 25.7306 31.8829 25.7305 32.34 26.1875L37.3126 31.1601C37.7696 31.6171 37.7696 32.3607 37.3126 32.8176Z" fill="#204475"/>
</svg>
