<svg width="80" height="80" viewBox="0 0 80 80" fill="none" xmlns="http://www.w3.org/2000/svg">
<path d="M80 39.922C80 50.5856 75.8473 60.6108 68.3072 68.1513C60.7668 75.6914 50.7415 79.8441 40.078 79.8441C31.8768 79.8441 23.9967 77.3753 17.2895 72.7049C12.8211 69.5933 9.0807 65.6594 6.23782 61.1209V69.5517H0V50.8382H18.7135V57.076H11.0687C17.0557 67.2666 27.9373 73.6062 40.078 73.6062C58.6515 73.6062 73.7622 58.4956 73.7622 39.922H80ZM39.7661 6.23782C51.9069 6.23782 62.7885 12.5776 68.7754 22.768H61.2866V29.0058H79.8441V10.2924H73.6062V18.723C70.7634 14.1846 67.023 10.2506 62.5545 7.13918C55.8473 2.46877 47.9673 0 39.7661 0C29.1086 0 19.1088 4.15501 11.6084 11.6993C4.12273 19.2293 0 29.2522 0 39.922H6.23782C6.23782 21.3485 21.2784 6.23782 39.7661 6.23782ZM27.9694 21.9883L23.9372 25.9871C22.1347 27.7892 21.9442 30.2913 22.7669 32.8287C24.191 37.2211 25.6883 40.6703 32.5471 47.5275C39.4057 54.3849 43.0395 55.4954 47.3093 57.2552C48.2922 57.6603 49.2207 57.8556 50.0908 57.8556C51.6373 57.8556 52.9988 57.2384 54.1524 56.0851L58.1676 52.0541L47.852 41.7235L42.5326 46.9246C41.1223 45.8929 39.5251 44.5103 37.5442 42.5297C35.5404 40.5265 34.0134 38.8253 32.8602 37.3074L38.024 32.1012L27.9694 21.9883Z" fill="white"/>
</svg>
