<svg width="98" height="30" viewBox="0 0 98 30" fill="none" xmlns="http://www.w3.org/2000/svg">
<path d="M39.0212 0.498047L34.0684 29.5629H41.9896L46.9465 0.498047H39.0212Z" fill="white"/>
<path d="M27.4267 0.531503L19.6685 20.3529L18.8413 17.36C17.3113 13.7539 12.9677 8.57496 7.86816 5.31113L14.9622 29.5495L23.3439 29.5352L35.8186 0.525391L27.4267 0.531503Z" fill="white"/>
<path d="M15.8343 2.61129C15.3739 0.840833 14.0394 0.313158 12.383 0.25H0.101868L0 0.828609C9.55722 3.14712 15.8812 8.73354 18.5053 15.4507L15.8343 2.61129Z" fill="white"/>
<path d="M63.0016 6.07131C65.5931 6.03056 67.4716 6.59694 68.9303 7.1837L69.6454 7.51986L70.7171 1.22037C69.1483 0.631577 66.6892 0 63.621 0C55.7934 0 50.2763 3.94227 50.2335 9.59185C50.1826 13.7664 54.1636 16.0971 57.1707 17.4886C60.2573 18.9148 61.2923 19.8214 61.278 21.0947C61.2536 23.0404 58.8169 23.9328 56.5412 23.9328C53.369 23.9328 51.6841 23.4947 49.0824 22.4109L48.0617 21.9464L46.9473 28.4516C48.8013 29.2645 52.222 29.9633 55.7731 30C64.0997 30 69.5109 26.1046 69.568 20.0679C69.6026 16.7654 67.4899 14.2452 62.912 12.1772C60.1412 10.8285 58.4461 9.93209 58.4624 8.57114C58.4624 7.36299 59.9008 6.07131 63.0016 6.07131Z" fill="white"/>
<path d="M91.0456 0.53125H84.9254C83.0245 0.53125 81.6106 1.04874 80.7753 2.94347L69.0137 29.5798H77.3322C77.3322 29.5798 78.6891 25.9982 78.9967 25.2138C79.9074 25.2138 87.9896 25.226 89.1407 25.226C89.377 26.2406 90.1064 29.5798 90.1064 29.5798H97.4551L91.0456 0.53125ZM81.2765 19.2647C81.9284 17.5961 84.4324 11.1418 84.4324 11.1418C84.3896 11.2212 85.0782 9.46096 85.4877 8.3669L86.0215 10.8728C86.0215 10.8728 87.5393 17.8121 87.8571 19.2647H81.2765Z" fill="white"/>
</svg>
