<svg width="110" height="30" viewBox="0 0 110 30" fill="none" xmlns="http://www.w3.org/2000/svg">
<path d="M105.767 8.19531L105.514 8.9743C105.218 9.96827 104.846 10.942 104.512 11.9233C103.791 14.0074 103.068 16.0914 102.284 18.3424C102.15 17.9933 102.071 17.8188 102.016 17.6468L98.8113 8.20037H95.3615C95.531 8.74415 95.6625 9.14881 95.8092 9.53831C97.2129 13.284 98.4926 17.0854 100.068 20.7603C100.964 22.8393 100.261 24.4048 99.1932 25.9957C98.4522 27.106 97.3216 27.5562 95.9786 27.4095C95.6094 27.364 95.2401 27.3159 94.7671 27.2527C94.6533 28.1556 94.5547 28.975 94.4561 29.7818C98.1815 30.5077 100.453 29.4455 102.142 26.2688C102.322 25.9274 102.511 25.5859 102.646 25.2319C104.79 19.6449 106.922 14.0529 109.158 8.20543L105.767 8.19531Z" fill="white"/>
<path d="M22.8739 2.9363V2.92871C21.6346 7.92637 20.4003 13.0024 19.1206 18.167C17.6612 12.9721 16.2677 7.89096 14.8741 2.92871H11.2877L11.0778 3.65459C10.2988 6.59602 9.46924 9.64368 8.67002 12.5775C8.16671 14.4264 7.67858 16.2853 7.16769 18.2075C5.93851 13.3236 4.72197 8.42967 3.54591 3.64953L3.38404 2.93124H0C1.6642 9.37053 3.29046 16.5913 4.93695 22.9522L8.87235 22.9472C10.0636 18.6804 11.3206 13.2553 12.4638 8.98104C12.6105 8.43474 12.7116 7.87832 12.8406 7.2966C14.0015 11.5178 15.1245 15.6328 16.2651 19.7477L17.163 22.9547H21.0377L23.9336 11.0474C24.6215 8.40944 25.312 5.65011 26.0176 2.9363H22.8739V2.9363Z" fill="white"/>
<path d="M104.407 2.92879H104.791V0.323735H105.684V0H103.517V0.323735H104.407V2.92879Z" fill="white"/>
<path d="M106.362 1.67454C106.387 1.23194 106.415 0.746332 106.415 0.38213H106.425C106.503 0.728628 106.62 1.10295 106.759 1.52026L107.234 2.91384H107.52L108.039 1.49497C108.188 1.0903 108.302 0.721039 108.408 0.384658H108.418C108.418 0.743801 108.446 1.23952 108.466 1.64672L108.534 2.93407H108.909L108.727 0.0078125H108.243L107.725 1.42415C107.591 1.79341 107.49 2.11461 107.414 2.41053H107.404C107.325 2.10703 107.232 1.78582 107.108 1.42415L106.61 0.0078125H106.132L105.927 2.93407H106.291L106.362 1.67454Z" fill="white"/>
<path d="M94.7124 22.4809C94.7124 18.7023 94.7655 15.0122 94.677 11.3247C94.6441 10.0879 93.9561 9.00541 92.7598 8.49451C89.7754 7.22234 86.8492 7.77623 83.8698 8.76766C84.0949 9.64276 84.277 10.3737 84.411 10.8896C86.0702 10.6544 87.613 10.2978 89.1558 10.2548C90.8377 10.2068 91.642 11.1754 91.7381 12.8649C91.776 13.5225 91.6091 13.8184 90.8579 13.8564C88.9332 13.9525 87.011 14.1675 85.3013 15.1842C83.3285 16.3603 82.59 18.4645 83.4095 20.5536C84.1252 22.3721 85.9665 23.2017 88.1922 22.8198C89.7653 22.5517 90.8883 21.6488 91.9404 20.2982C91.9404 21.1379 91.9404 21.7752 91.9404 22.4783C92.8939 22.4809 93.7943 22.4809 94.7124 22.4809ZM87.8684 20.4929C87.2538 20.4828 86.4976 20.1313 86.2219 19.2031C85.9361 18.2268 86.1056 17.1924 87.092 16.8307C88.4046 16.3501 89.8235 16.1655 91.2069 15.9101C91.3511 15.8822 91.6774 16.1756 91.7102 16.3603C92.0593 18.1534 90.0587 20.4803 87.8684 20.4929Z" fill="white"/>
<path d="M43.7457 10.4582V8.1364H40.9434V22.4844H44.0441C44.0441 20.2714 43.9632 18.114 44.0745 15.9768C44.1352 14.8109 44.3249 13.564 44.8206 12.5321C45.0988 11.9555 45.769 11.2878 46.3836 11.0323C46.3836 11.0323 47.5395 10.5644 48.0478 10.5189C48.0478 9.99535 48.0478 7.79496 48.0478 7.79496C46.027 7.78737 44.7776 8.86733 43.7457 10.4582Z" fill="white"/>
<path d="M65.0731 7.96672C64.3877 7.92119 63.8616 7.89843 63.333 7.84785C59.6961 7.52158 56.6408 9.62333 55.662 13.1414C55.1208 15.0737 55.1082 17.0111 55.6292 18.9509C56.4663 22.0593 58.9904 23.6274 62.0659 22.6688C63.2774 22.2996 64.2941 21.3309 65.3083 20.6885C65.364 22.7928 65.364 22.7928 68.0322 22.4614C68.0322 15.8274 68.0322 9.26924 68.0322 2.74902C67.0256 2.74902 66.1151 2.74902 65.068 2.74902C65.0731 4.50933 65.0731 6.18618 65.0731 7.96672ZM65.1136 13.4373C65.1667 13.4449 65.0377 16.2321 64.6356 17.5371C64.3725 18.397 63.7326 19.262 63.0194 19.8387C61.6562 20.9616 59.7239 20.4507 59.0916 18.8118C58.2469 16.6089 58.2443 14.3478 59.3192 12.2031C60.1564 10.5262 62.979 9.67644 64.7013 10.5161C64.9087 10.6173 65.0731 10.9891 65.0959 11.2445C65.149 11.9704 65.1136 12.7064 65.1136 13.4373Z" fill="white"/>
<path d="M50.2773 22.4898C51.2991 22.4898 52.24 22.4898 53.2162 22.4898C53.2162 15.8507 53.2162 9.29005 53.2162 2.74707C52.1869 2.74707 51.2435 2.74707 50.2773 2.74707C50.2773 9.3634 50.2773 15.8988 50.2773 22.4898Z" fill="white"/>
<path d="M34.3184 7.98531C28.911 6.91799 24.7252 10.6991 25.2032 16.2051C25.5927 20.6919 27.6742 22.8316 31.8727 22.9454C34.0781 22.8923 36.1343 22.1563 37.5102 20.1532C39.574 17.1561 39.6044 13.9441 38.1197 10.7219C37.4015 9.15379 35.9952 8.3141 34.3184 7.98531ZM32.1635 20.2442C29.8089 20.2442 27.8968 18.0615 27.8968 15.373C27.8968 12.6845 29.8089 10.5044 32.1635 10.5044C34.5207 10.5044 36.4328 12.6845 36.4328 15.373C36.4303 18.0615 34.5182 20.2442 32.1635 20.2442Z" fill="white"/>
<path d="M78.0507 3.05199C75.61 2.72572 73.091 2.83953 70.582 2.83953C70.582 9.34711 70.582 15.9558 70.582 22.4912C71.5937 22.4912 72.5421 22.4912 73.7081 22.4912C73.7081 20.0708 73.7081 17.7389 73.7081 15.6346C75.5367 15.2831 77.254 15.1743 78.8145 14.6103C81.6472 13.5734 83.0104 11.0265 82.7499 7.85995C82.5375 5.35607 80.9264 3.43642 78.0507 3.05199ZM78.8145 11.1883C77.7826 12.5364 75.6353 13.1206 73.7233 12.5415C73.7233 10.2171 73.7233 7.87513 73.7233 5.38641C75.7643 5.27766 77.7396 5.02474 79.0447 6.94186C79.8565 8.13816 79.7073 10.0275 78.8145 11.1883Z" fill="white"/>
</svg>
